inDegrees=no
num_controls=7
num_derivatives=13
num_iterations=121
num_multipliers=7
num_parameters=0
num_slacks=7
num_states=26
objective=4.978826
objective_accelerations=0.400489
objective_balance=0.044552
objective_effort=0.410977
objective_height=4.102146
objective_ligament=0.020664
solver_duration=1354.946336
status=Solve_Succeeded
success=true
DataType=double
version=3
OpenSimVersion=4.4-2022-07-23-0e9fedc
endheader
time	/jointset/ground_pelvis/pelvis_tilt/value	/jointset/ground_pelvis/pelvis_tx/value	/jointset/ground_pelvis/pelvis_ty/value	/jointset/hip_l/hip_flexion_l/value	/jointset/hip_l/hip_adduction_l/value	/jointset/hip_l/hip_rotation_l/value	/jointset/back/lumbar_extension/value	/jointset/patellofemoral_l/patellar_flexion_l/value	/jointset/knee_l/knee_flexion_l/value	/jointset/knee_l/knee_adduction_l/value	/jointset/knee_l/knee_rotation_l/value	/jointset/ankle_l/ankle_angle_l/value	/jointset/subtalar_l/subtalar_angle_l/value	/jointset/ground_pelvis/pelvis_tilt/speed	/jointset/ground_pelvis/pelvis_tx/speed	/jointset/ground_pelvis/pelvis_ty/speed	/jointset/hip_l/hip_flexion_l/speed	/jointset/hip_l/hip_adduction_l/speed	/jointset/hip_l/hip_rotation_l/speed	/jointset/back/lumbar_extension/speed	/jointset/patellofemoral_l/patellar_flexion_l/speed	/jointset/knee_l/knee_flexion_l/speed	/jointset/knee_l/knee_adduction_l/speed	/jointset/knee_l/knee_rotation_l/speed	/jointset/ankle_l/ankle_angle_l/speed	/jointset/subtalar_l/subtalar_angle_l/speed	/forceset/tau_hip_flexion_l	/forceset/tau_hip_adduction_l	/forceset/tau_hip_rotation_l	/forceset/tau_knee_flexion_l	/forceset/tau_ankle_angle_l	/forceset/tau_subtalar_angle_l	/forceset/tau_lumbar_extension	lambda_cid13_p0	lambda_cid13_p1	lambda_cid13_p2	lambda_cid13_p3	lambda_cid13_p4	lambda_cid13_p5	lambda_cid14_p0	/jointset/ground_pelvis/pelvis_tilt/accel	/jointset/ground_pelvis/pelvis_tx/accel	/jointset/ground_pelvis/pelvis_ty/accel	/jointset/hip_l/hip_flexion_l/accel	/jointset/hip_l/hip_adduction_l/accel	/jointset/hip_l/hip_rotation_l/accel	/jointset/back/lumbar_extension/accel	/jointset/patellofemoral_l/patellar_flexion_l/accel	/jointset/knee_l/knee_flexion_l/accel	/jointset/knee_l/knee_adduction_l/accel	/jointset/knee_l/knee_rotation_l/accel	/jointset/ankle_l/ankle_angle_l/accel	/jointset/subtalar_l/subtalar_angle_l/accel	gamma_cid13_p0	gamma_cid13_p1	gamma_cid13_p2	gamma_cid13_p3	gamma_cid13_p4	gamma_cid13_p5	gamma_cid14_p0
0	-0.1601470917834419	0.05856708831706795	0.897998065009875	0.3774920279260975	-0.2591470152491804	-0.2728004719944344	-0.0126506700172305	0.03223623128432902	0.03223623128433527	-0.1745329251994329	0.1743651822784309	-0.04231376238535053	-0.009273413315609644	0	0	0	0	0	0	0	0	0	0	0	0	0	0.1331869224852101	-0.06527145516506025	-0.04771415536050726	-0.2775844474860763	0.2653881921107334	-0.04137703255651082	-0.08149155129458915	42.46704433911385	3.909359499073103	6.541681528929474	7.862373694767271	-596.6772024953538	-68.25796022750924	-39.0685793326368	-4.011345557650701	-2.165242754375444	-0.9533401181444769	10.68581175867123	-0.8979148266941956	2.124827294875065	-5.371592132421633	6.375578476929515	6.375578476929341	0.03649741175726902	0.04907272955601653	-0.2983490001029857	-0.9900269223143899	-1.604495766221234e-08	5.067047913834412e-08	3.758498205797423e-08	3.698166756126522e-09	2.320604892055717e-08	5.909591464173697e-09	-5.324558370366718e-09
0.01	-0.1603412157620629	0.05845947239680131	0.8979513849813635	0.3780140902474839	-0.2591918423782595	-0.2726947435292627	-0.01291988172476636	0.03254725504307013	0.03254725504309142	-0.1745329049737444	0.1743655855546181	-0.04233099688951459	-0.009323368475759861	-0.03859818895807113	-0.02149143969887792	-0.009303446490905438	0.1039627072323478	-0.008919346727532017	0.02104123469499578	-0.05349227959052928	0.06190930616280298	0.06190930616280465	4.061100934711144e-06	7.956893066366627e-05	-0.003522211881451713	-0.009961619388123828	0.125229857621677	-0.07540766439554847	-0.04583919969112199	-0.2662119609837826	0.2467016048787055	-0.0244395489036185	-0.07545312976355162	37.09686711644089	-2.217482496777001	7.188555879846199	10.941790585213	-597.3157152360006	-79.78417963244024	-39.07748967614105	-3.750068237500333	-2.136332184610758	-0.9139583916275495	10.18403332199368	-0.8820433892461874	2.078098600027321	-5.285536585052502	6.054290912556715	6.054290912557013	-0.01764830752955284	-0.01276734967445173	-0.390454944155689	-0.9948296856226576	-2.057706899714181e-08	6.642318757333712e-08	4.526690609807006e-08	5.75378081098853e-09	-2.467897465054634e-08	3.479580564647101e-08	-7.238310744349098e-09
0.02	-0.1609145241647824	0.05813789455815278	0.8978126481925306	0.3795622862644906	-0.2593244827333065	-0.2723817373084988	-0.0137135143707433	0.03346850870878689	0.03346850870878795	-0.1745328451177398	0.1743667512551767	-0.04238571304489092	-0.009472059877503557	-0.07583688482077607	-0.04279238367637735	-0.01841135206430349	0.2052267391237729	-0.01756264519360351	0.04145555111861706	-0.1048841876884315	0.1220459813896478	0.1220459813896503	7.771530225017201e-06	0.000152484881487864	-0.007496330242478717	-0.01974724831869867	0.1172727927581506	-0.08554387362604057	-0.04396424402191803	-0.2548394744814245	0.228015017646695	-0.007502065250723556	-0.06941470823252902	31.78123954368358	-8.35248515513025	7.835144417397093	13.98852577490609	-597.0721195428895	-91.23662472177523	-39.10385541700224	-3.739446938577561	-2.127143610099664	-0.9142319346429932	10.14607669048668	-0.8427051744020191	1.999443640600174	-4.951517833896277	6.021052289737842	6.021052289737505	0.03642727742852391	0.04774213358810313	-0.3887302960179349	-0.9548288308044962	-2.510918033207128e-08	8.217589600833012e-08	5.294883013816588e-08	7.809394865850536e-09	-7.256399822164984e-08	6.368201982876831e-08	-9.152063118331477e-09
0.03	-0.1618542465589653	0.05760548832414694	0.8975837028132321	0.382109361378463	-0.2595421117679871	-0.2718674658396765	-0.01501010199513465	0.03498283675600636	0.03498283675600262	-0.1745326178692905	0.1743685927942561	-0.04248059302945624	-0.009717237082673939	-0.1119335302866492	-0.06353233869655232	-0.02735134749133823	0.3036667321438327	-0.0259183314528676	0.06132094287572311	-0.1540673810251005	0.1805668438311747	0.1805668438311741	3.340254727661883e-05	0.000208062838610372	-0.01137494211781375	-0.0292181065170568	0.1134694488234967	-0.08080215849756889	-0.0437254391078144	-0.2535018410620589	0.2298780083606	-0.01125678513902671	-0.06589422351241082	32.28056357729533	-6.90175326219617	7.709531808268836	12.43029668936469	-597.2006408295448	-87.74142667382441	-39.14694291912965	-3.518667993999665	-2.023941213277956	-0.8799416074002731	9.614722277943937	-0.8252818056744965	1.968409731037065	-4.846826659002996	5.72968742611678	5.729687426116586	-0.01499633957968133	-0.0167048056186775	-0.3717183473969326	-0.9327201854744787	-3.895386755055195e-08	8.795861689969436e-08	7.112048759346099e-08	1.952102246329994e-08	-1.484708439842067e-07	5.938067320302321e-08	-1.224032393417734e-08
0.04	-0.1631497143364846	0.05687037858687943	0.8972661458275297	0.3856251887566746	-0.2598419539560577	-0.271156875895729	-0.01678754286798288	0.03707479026858143	0.03707479026858176	-0.1745322597813347	0.1743707560264426	-0.0426111174755959	-0.01005502404405249	-0.1469859614888299	-0.08333308432871143	-0.03613367334508751	0.3989771919710284	-0.03400527587156745	0.08071924614367901	-0.201054837379816	0.2375710744629649	0.2375710744629643	3.39394274020981e-05	0.0002168235000093121	-0.01462522255737429	-0.03826919956033505	0.1096661048888261	-0.07606044336909397	-0.04348663419363954	-0.252164207642727	0.2317409990744946	-0.01501150502733013	-0.0623737387922966	32.82963107610811	-5.459055385883969	7.584429364490871	10.83900798957046	-596.5393767132673	-84.17754398081526	-39.20588740571344	-3.530604085839196	-1.939301732496396	-0.8826980199859036	9.520170051913814	-0.7889568062892008	1.906025942770151	-4.512370437505635	5.717725927790464	5.717725927790738	0.03140845004323131	0.03837867444337961	-0.263064008862938	-0.870875799788524	-5.299056664292027e-08	9.353577103758173e-08	8.950842821195609e-08	3.143174312348311e-08	-2.249554592764842e-07	5.439504697298857e-08	-1.535280141892761e-08
0.05	-0.164790558443713	0.05594133505166508	0.8968613657670729	0.3900794661916529	-0.2602211592060081	-0.2702549143258212	-0.01902389026093275	0.03972934080211726	0.03972934080211282	-0.1745318084786165	0.1743730271379796	-0.04277177793041039	-0.0104812425011906	-0.1809826338440852	-0.1023786320950121	-0.0448097940893515	0.4913979971512986	-0.04178224573610675	0.0995688443519032	-0.2458821921699669	0.2930708997294647	0.2930708997294691	5.295538882187185e-05	0.0002451624605715477	-0.01748916362601121	-0.04691600716919703	0.1032118120904509	-0.0743166283932488	-0.04248885499453611	-0.2462841757368041	0.2252233274155599	-0.01298534520993035	-0.05720772674399118	30.89345661376534	-6.0085723120282	7.68182121306041	11.33763797700312	-595.7569112706134	-84.28811795388624	-39.27964345169205	-3.304168923202923	-1.872626322998693	-0.8582330122475152	9.030982598685096	-0.764045893885782	1.858780263090349	-4.418050643912733	5.425894044561759	5.425894044562322	-0.01333714615839155	-0.01378599576769738	-0.295405789879484	-0.8528349182913288	-5.865468045015398e-08	9.836213037330503e-08	9.599400735547758e-08	3.686016565545373e-08	-2.666544431567223e-07	6.014196314427975e-08	-1.647059659496666e-08
